<svg width="30" height="30" viewBox="0 0 30 30" fill="none" xmlns="http://www.w3.org/2000/svg">
<path fill-rule="evenodd" clip-rule="evenodd" d="M16.3138 2.01979C15.5182 1.47774 14.4818 1.47774 13.6862 2.01979L2.63353 9.54721C1.97479 9.99731 1.57895 10.7523 1.57895 11.5606V25.9669C1.57895 27.3043 2.63937 28.3867 3.94737 28.3867H9.47368V21.1271C9.47368 18.8992 11.241 17.094 13.4211 17.094H16.5789C18.759 17.094 20.5263 18.8992 20.5263 21.1271V28.3867H26.0526C27.3606 28.3867 28.4211 27.3043 28.4211 25.9669V11.5606C28.4211 10.7523 28.0252 9.99731 27.3665 9.54721L16.3138 2.01979ZM12.8103 0.677565C14.1363 -0.225855 15.8637 -0.225855 17.1897 0.677565L28.2422 8.20499C29.3403 8.95354 30 10.2135 30 11.5606V25.9669C30 28.1948 28.2327 30 26.0526 30H19.7368C19.3009 30 18.9474 29.6386 18.9474 29.1934V21.1271C18.9474 19.7914 17.8869 18.7073 16.5789 18.7073H13.4211C12.1131 18.7073 11.0526 19.7914 11.0526 21.1271V29.1934C11.0526 29.6386 10.6991 30 10.2632 30H3.94737C1.76732 30 0 28.1948 0 25.9669V11.5606C0 10.2135 0.659686 8.95354 1.75769 8.20499L12.8103 0.677565Z" fill="#fff"/>
</svg>
