<svg width="31" height="41" viewBox="0 0 31 41" fill="none" xmlns="http://www.w3.org/2000/svg">
<path fill-rule="evenodd" clip-rule="evenodd" d="M22.8002 4.0258L24.4269 4.2284C28.1816 4.69602 31 7.88719 31 11.6709V32.6497C31 36.3235 28.2635 39.422 24.6179 39.876C18.5627 40.6302 12.4373 40.6302 6.38215 39.876C2.73652 39.422 0 36.3235 0 32.6497V11.6709C0 7.88718 2.81839 4.69602 6.5731 4.2284L8.1998 4.0258C8.84417 1.70411 10.9731 0 13.5 0H17.5C20.0269 0 22.1558 1.70411 22.8002 4.0258ZM8 7.07386L6.94386 7.2054C4.69103 7.48597 3 9.40067 3 11.6709V32.6497C3 34.8101 4.60916 36.632 6.75291 36.899C12.5619 37.6225 18.4381 37.6225 24.2471 36.899C26.3908 36.632 28 34.8101 28 32.6497V11.6709C28 9.40067 26.309 7.48597 24.0561 7.2054L23 7.07386V9.5C23 10.3284 22.3284 11 21.5 11H9.5C8.67157 11 8 10.3284 8 9.5V7.07386ZM11 5.5C11 4.11929 12.1193 3 13.5 3H17.5C18.8807 3 20 4.11929 20 5.5V8H11V5.5Z" fill="#fff"/>
<path d="M23 19C23 18.1716 22.3284 17.5 21.5 17.5H9.5C8.67157 17.5 8 18.1716 8 19C8 19.8284 8.67157 20.5 9.5 20.5H21.5C22.3284 20.5 23 19.8284 23 19Z" fill="#fff"/>
<path d="M21 25C21 24.1716 20.3284 23.5 19.5 23.5H9.5C8.67157 23.5 8 24.1716 8 25C8 25.8284 8.67157 26.5 9.5 26.5H19.5C20.3284 26.5 21 25.8284 21 25Z" fill="#fff"/>
</svg>
