<svg width="39" height="39" viewBox="0 0 39 39" fill="none" xmlns="http://www.w3.org/2000/svg">
<path fill-rule="evenodd" clip-rule="evenodd" d="M37.7939 6.3315C38.1783 6.91373 38.1142 7.70495 37.6017 8.21751L19.2169 26.6023C19.0284 26.7907 18.7932 26.9256 18.5353 26.9929L10.8785 28.9929C10.6287 29.0582 10.3713 29.0569 10.1295 28.9953C9.87232 28.9299 9.63278 28.7963 9.43874 28.6023C9.06219 28.2257 8.91352 27.6778 9.0481 27.1625L11.0481 19.5057C11.107 19.2801 11.2176 19.0572 11.3706 18.8824L29.8235 0.43934C29.985 0.277812 30.1796 0.15692 30.3913 0.0832625C30.5483 0.0286486 30.7148 0 30.8842 0C31.282 0 31.6635 0.158035 31.9448 0.43934L37.6017 6.09619C37.6749 6.16942 37.739 6.24833 37.7939 6.3315ZM34.4197 7.15685L30.8842 3.62132L13.8478 20.6576L12.5979 25.4432L17.3834 24.1932L34.4197 7.15685Z" fill="#fff"/>
<path d="M34.1669 29.8206C34.7137 25.1454 34.8877 20.4376 34.6888 15.7416C34.6793 15.5167 34.7639 15.298 34.923 15.1388L36.8896 13.1722C37.1314 12.9304 37.5446 13.0839 37.5672 13.4251C37.9371 19.0044 37.7969 24.6091 37.1466 30.1691C36.6734 34.2142 33.4248 37.3842 29.4007 37.834C22.4675 38.6088 15.3008 38.6088 8.36769 37.834C4.34358 37.3842 1.09491 34.2142 0.621807 30.1691C-0.207269 23.0805 -0.207269 15.9195 0.621807 8.83086C1.09491 4.7858 4.34358 1.61578 8.36769 1.16602C13.6272 0.578197 19.0211 0.436297 24.3455 0.740322C24.6886 0.759916 24.845 1.17515 24.602 1.41819L22.6169 3.4033C22.4595 3.56069 22.2437 3.64521 22.0212 3.63771C17.5684 3.48753 13.0853 3.65744 8.70091 4.14746C6.0407 4.44478 3.90972 6.54401 3.6015 9.17936C2.7995 16.0364 2.7995 22.9636 3.6015 29.8206C3.90972 32.456 6.0407 34.5552 8.70091 34.8525C15.4126 35.6026 22.3558 35.6026 29.0674 34.8525C31.7277 34.5552 33.8586 32.456 34.1669 29.8206Z" fill="#fff"/>
</svg>
