<svg width="30" height="30" viewBox="0 0 30 30" fill="none" xmlns="http://www.w3.org/2000/svg">
<path d="M6.1649 15C6.1649 14.2682 6.75912 13.6749 7.49213 13.6749H13.6728V7.5042C13.6728 6.77238 14.267 6.17912 15 6.17912C15.733 6.17912 16.3273 6.77238 16.3273 7.5042V13.6749H22.508C23.241 13.6749 23.8353 14.2682 23.8353 15C23.8353 15.7318 23.241 16.3251 22.508 16.3251H16.3273V22.4958C16.3273 23.2276 15.733 23.8208 15 23.8208C14.267 23.8208 13.6728 23.2276 13.6728 22.4958V16.3251H7.49213C6.75912 16.3251 6.1649 15.7318 6.1649 15Z" fill="#fff"/>
<path fill-rule="evenodd" clip-rule="evenodd" d="M6.71234 0.457258C12.1762 -0.152419 17.8238 -0.152419 23.2877 0.457258C26.5197 0.8179 29.1297 3.35965 29.5099 6.60515C30.1634 12.1827 30.1634 17.8173 29.5099 23.3949C29.1297 26.6403 26.5197 29.1821 23.2877 29.5427C17.8238 30.1524 12.1762 30.1524 6.71233 29.5427C3.4803 29.1821 0.87026 26.6403 0.490054 23.3949C-0.163351 17.8173 -0.163351 12.1827 0.490054 6.60515C0.87026 3.35965 3.4803 0.8179 6.71234 0.457258ZM22.9928 3.09102C17.7249 2.50321 12.2751 2.50321 7.00718 3.09102C4.98194 3.317 3.36086 4.91283 3.12654 6.91301C2.4971 12.286 2.4971 17.714 3.12654 23.087C3.36086 25.0872 4.98194 26.683 7.00717 26.909C12.2751 27.4968 17.7249 27.4968 22.9928 26.909C25.0181 26.683 26.6391 25.0872 26.8735 23.087C27.5029 17.714 27.5029 12.286 26.8735 6.91301C26.6391 4.91283 25.0181 3.317 22.9928 3.09102Z" fill="#fff"/>
</svg>
