<svg width="36" height="28" viewBox="0 0 36 28" fill="none" xmlns="http://www.w3.org/2000/svg">
<path fill-rule="evenodd" clip-rule="evenodd" d="M20.707 7.5H2C1.17157 7.5 0.5 6.82843 0.5 6C0.5 5.17157 1.17157 4.5 2 4.5H20.707C21.36 2.1915 23.4824 0.5 26 0.5C28.5176 0.5 30.64 2.1915 31.293 4.5H34C34.8284 4.5 35.5 5.17157 35.5 6C35.5 6.82843 34.8284 7.5 34 7.5H31.293C30.64 9.80851 28.5176 11.5 26 11.5C23.4824 11.5 21.36 9.80851 20.707 7.5ZM23.5 6C23.5 4.61929 24.6193 3.5 26 3.5C27.3807 3.5 28.5 4.61929 28.5 6C28.5 7.38071 27.3807 8.5 26 8.5C24.6193 8.5 23.5 7.38071 23.5 6Z" fill="#000"/>
<path fill-rule="evenodd" clip-rule="evenodd" d="M15.293 23.5H34C34.8284 23.5 35.5 22.8284 35.5 22C35.5 21.1716 34.8284 20.5 34 20.5H15.293C14.64 18.1915 12.5176 16.5 10 16.5C7.48245 16.5 5.35996 18.1915 4.70703 20.5H2C1.17157 20.5 0.5 21.1716 0.5 22C0.5 22.8284 1.17157 23.5 2 23.5H4.70703C5.35996 25.8085 7.48245 27.5 10 27.5C12.5176 27.5 14.64 25.8085 15.293 23.5ZM7.5 22C7.5 20.6193 8.61929 19.5 10 19.5C11.3807 19.5 12.5 20.6193 12.5 22C12.5 23.3807 11.3807 24.5 10 24.5C8.61929 24.5 7.5 23.3807 7.5 22Z" fill="#000"/>
</svg>
